P3
16 16
255
220 235 255
220 235 255
220 235 255
220 235 255
220 235 255
220 235 255
220 235 255
220 235 255
220 235 255
220 235 255
220 235 255
220 235 255
220 235 255
220 235 255
220 235 255
220 235 255
221 235 255
221 235 255
221 235 255
221 235 255
221 235 255
221 235 255
221 235 255
221 235 255
221 235 255
221 235 255
221 235 255
221 235 255
221 235 255
221 235 255
221 235 255
221 235 255
222 236 255
222 236 255
222 236 255
205 214 230
149 139 138
147 143 147
162 177 197
149 163 185
169 185 207
197 208 223
180 190 202
169 179 190
176 186 197
198 209 223
221 234 254
222 236 255
222 236 255
222 236 255
219 232 250
129 113 104
120 107 98
118 131 151
112 116 140
133 81 109
159 157 167
161 170 181
154 167 181
152 166 181
153 166 181
159 169 181
182 189 198
220 233 251
174 190 211
173 188 210
163 174 192
110 86 69
121 126 132
129 117 133
114 122 136
134 141 141
169 174 181
162 171 181
158 169 181
156 168 181
157 168 181
161 170 181
167 173 181
182 188 198
120 119 146
129 112 138
135 119 142
100 78 62
161 168 180
178 193 211
168 180 207
177 177 185
174 177 181
170 175 181
168 174 181
167 173 181
168 173 181
170 174 181
173 176 181
177 176 177
116 130 149
105 121 137
109 127 151
97 78 77
157 172 182
209 227 251
209 226 250
153 154 157
170 170 170
177 177 177
179 179 180
180 180 181
180 180 181
180 179 180
177 176 176
161 160 161
84 98 125
129 137 156
151 95 119
114 130 145
145 168 177
175 193 220
189 206 235
109 113 126
100 103 105
100 101 108
96 94 105
100 107 117
96 103 109
97 98 103
100 102 114
95 90 104
122 126 145
132 135 164
107 136 136
121 144 157
119 137 155
110 115 137
79 83 126
98 114 148
94 99 103
105 111 117
100 92 113
77 77 88
103 108 115
103 103 114
98 103 108
80 97 99
120 133 155
79 61 73
94 108 123
109 120 140
122 144 160
128 145 168
123 140 163
125 139 145
101 105 108
102 105 109
101 104 109
98 100 105
88 88 94
80 69 84
104 109 115
110 124 142
111 123 142
56 51 53
69 134 117
98 133 136
127 143 165
126 142 164
126 142 163
118 132 148
116 126 143
91 94 98
85 85 86
82 81 85
81 80 83
88 85 97
98 70 122
115 115 148
128 146 169
118 138 156
56 117 99
99 137 138
149 166 190
127 142 163
126 142 162
122 117 160
128 27 186
109 73 148
89 95 105
48 32 67
52 43 82
87 91 129
80 47 101
99 90 125
126 141 164
123 141 161
110 129 146
118 135 155
127 143 165
124 133 159
127 143 166
119 117 158
108 20 155
104 82 144
115 128 148
50 46 67
51 64 169
55 73 192
89 101 155
122 137 160
106 103 136
132 149 172
133 151 175
133 151 175
109 91 130
95 36 103
111 101 136
125 139 165
109 116 146
114 125 151
118 132 157
110 124 148
69 84 159
46 61 160
106 122 166
128 145 170
103 105 134
129 146 170
130 148 172
130 148 172
115 108 116
147 152 103
133 137 122
130 147 171
120 155 183
110 160 192
129 149 175
123 140 167
110 125 154
99 112 144
115 131 157
126 143 168
114 127 149
126 142 165
128 144 168
123 138 161
152 164 111
166 180 103
152 173 100
109 147 164
56 169 206
67 168 205
97 158 190
131 150 175
132 149 173
130 148 172
129 147 171
126 143 167
